<mxfile host="app.diagrams.net" modified="2024-06-14T14:05:20.950Z" agent="Mozilla/5.0 (Windows NT 10.0; Win64; x64) AppleWebKit/537.36 (KHTML, like Gecko) Chrome/125.0.0.0 Safari/537.36" version="24.5.4" etag="sSSpiUmF4RDXEV_X6Gny" type="github">
  <diagram name="Page-1" id="qyL_6Thu5lBeDaRvMsoj">
    <mxGraphModel>
      <root>
        <mxCell id="0" />
        <mxCell id="1" parent="0" />
      </root>
    </mxGraphModel>
  </diagram>
</mxfile>
